<svg width="67" height="13" viewBox="0 0 67 13" fill="none" xmlns="http://www.w3.org/2000/svg">
<path d="M1.32195 3.8354H-0.00195312V2.77785H1.32195V0.76144H2.50195V2.77785H4.35829V3.8354H2.50195V8.07973C2.50195 8.38055 2.55951 8.59676 2.67463 8.72837C2.79935 8.85057 3.0104 8.91168 3.3078 8.91168H4.58853V9.96923H3.23585C2.54512 9.96923 2.05105 9.81882 1.75366 9.51801C1.46585 9.21719 1.32195 8.74247 1.32195 8.09383V3.8354Z" fill="#0F172B"/>
<path d="M8.39037 10.0538C7.68046 10.0538 7.04729 9.89873 6.49086 9.58851C5.94403 9.2783 5.51712 8.84587 5.21013 8.29124C4.90314 7.73661 4.74964 7.09738 4.74964 6.37354C4.74964 5.6497 4.90314 5.01047 5.21013 4.45584C5.51712 3.90121 5.94403 3.46879 6.49086 3.15857C7.04729 2.84835 7.68046 2.69324 8.39037 2.69324C9.10029 2.69324 9.72867 2.84835 10.2755 3.15857C10.8319 3.46879 11.2636 3.90121 11.5706 4.45584C11.8776 5.01047 12.0311 5.6497 12.0311 6.37354C12.0311 7.09738 11.8776 7.73661 11.5706 8.29124C11.2636 8.84587 10.8319 9.2783 10.2755 9.58851C9.72867 9.89873 9.10029 10.0538 8.39037 10.0538ZM8.39037 9.02448C8.87005 9.02448 9.29216 8.91168 9.65672 8.68606C10.0309 8.46045 10.3187 8.14554 10.5201 7.74131C10.7216 7.33709 10.8223 6.88117 10.8223 6.37354C10.8223 5.86591 10.7216 5.40999 10.5201 5.00577C10.3187 4.60155 10.0309 4.28663 9.65672 4.06102C9.29216 3.8354 8.87005 3.7226 8.39037 3.7226C7.9107 3.7226 7.48379 3.8354 7.10964 4.06102C6.74509 4.28663 6.46208 4.60155 6.26062 5.00577C6.05916 5.40999 5.95842 5.86591 5.95842 6.37354C5.95842 6.88117 6.05916 7.33709 6.26062 7.74131C6.46208 8.14554 6.74509 8.46045 7.10964 8.68606C7.48379 8.91168 7.9107 9.02448 8.39037 9.02448Z" fill="#0F172B"/>
<path d="M20.1125 2.77785V9.61671C20.1125 11.7882 18.8989 12.874 16.4717 12.874C15.522 12.874 14.7449 12.6625 14.1405 12.2395C13.5457 11.8164 13.2004 11.2148 13.1044 10.4346H14.3132C14.4091 10.8858 14.6538 11.2336 15.0471 11.478C15.4404 11.7224 15.9441 11.8446 16.5581 11.8446C18.141 11.8446 18.9325 11.0879 18.9325 9.57441V8.72837C18.4048 9.61201 17.5654 10.0538 16.4142 10.0538C15.733 10.0538 15.1239 9.90813 14.5866 9.61671C14.059 9.3253 13.6417 8.90228 13.3347 8.34765C13.0373 7.79302 12.8886 7.13498 12.8886 6.37354C12.8886 5.6497 13.0373 5.01047 13.3347 4.45584C13.6417 3.90121 14.0638 3.46879 14.601 3.15857C15.1382 2.84835 15.7426 2.69324 16.4142 2.69324C17.009 2.69324 17.5174 2.81075 17.9395 3.04576C18.3617 3.27137 18.6926 3.59569 18.9325 4.01871L19.0908 2.77785H20.1125ZM16.5293 9.02448C16.9994 9.02448 17.4167 8.91638 17.7812 8.70016C18.1554 8.47455 18.4432 8.16434 18.6447 7.76951C18.8461 7.36529 18.9469 6.90937 18.9469 6.40174C18.9469 5.88471 18.8461 5.42409 18.6447 5.01987C18.4432 4.60625 18.1554 4.28663 17.7812 4.06102C17.4167 3.8354 16.9994 3.7226 16.5293 3.7226C15.8002 3.7226 15.2102 3.97171 14.7593 4.46994C14.318 4.95876 14.0973 5.5933 14.0973 6.37354C14.0973 7.15378 14.318 7.79302 14.7593 8.29124C15.2102 8.78007 15.8002 9.02448 16.5293 9.02448Z" fill="#0F172B"/>
<path d="M21.2242 6.37354C21.2242 5.6403 21.3681 4.99637 21.6559 4.44174C21.9533 3.88711 22.3659 3.45938 22.8935 3.15857C23.4211 2.84835 24.0255 2.69324 24.7067 2.69324C25.3782 2.69324 25.973 2.82955 26.4911 3.10217C27.0091 3.37478 27.4168 3.7696 27.7142 4.28663C28.0116 4.80366 28.1699 5.40999 28.1891 6.10563C28.1891 6.20903 28.1795 6.37354 28.1603 6.59915H22.4618V6.69786C22.481 7.4029 22.7016 7.96693 23.1237 8.38995C23.5459 8.81297 24.0975 9.02448 24.7786 9.02448C25.3063 9.02448 25.7524 8.89758 26.1169 8.64376C26.4911 8.38055 26.7405 8.01863 26.8652 7.558H28.0596C27.9157 8.29124 27.5559 8.89287 26.9803 9.3629C26.4047 9.82352 25.6996 10.0538 24.865 10.0538C24.1359 10.0538 23.4979 9.90343 22.9511 9.60261C22.4042 9.2924 21.9773 8.85997 21.6703 8.30534C21.3729 7.74131 21.2242 7.09738 21.2242 6.37354ZM26.9659 5.6403C26.9084 5.02927 26.6733 4.55454 26.2608 4.21612C25.8579 3.87771 25.3446 3.7085 24.7211 3.7085C24.1646 3.7085 23.6754 3.88711 23.2533 4.24433C22.8311 4.60155 22.5913 5.06687 22.5337 5.6403H26.9659Z" fill="#0F172B"/>
<path d="M29.7039 3.8354H28.38V2.77785H29.7039V0.76144H30.8839V2.77785H32.7403V3.8354H30.8839V8.07973C30.8839 8.38055 30.9415 8.59676 31.0566 8.72837C31.1813 8.85057 31.3924 8.91168 31.6898 8.91168H32.9705V9.96923H31.6178C30.9271 9.96923 30.433 9.81882 30.1356 9.51801C29.8478 9.21719 29.7039 8.74247 29.7039 8.09383V3.8354Z" fill="#0F172B"/>
<path d="M37.1709 2.69324C38.0631 2.69324 38.7826 2.95646 39.3294 3.48289C39.8762 4.00931 40.1497 4.83656 40.1497 5.96462V9.96923H38.9697V6.03512C38.9697 5.29248 38.797 4.72845 38.4516 4.34303C38.1063 3.94821 37.6122 3.7508 36.9694 3.7508C36.2883 3.7508 35.7462 3.98581 35.3433 4.45584C34.95 4.92586 34.7533 5.5651 34.7533 6.37354V9.96923H33.5733V0.0987048H34.7533V3.96231C34.9932 3.58629 35.3097 3.28078 35.7031 3.04576C36.106 2.81075 36.5953 2.69324 37.1709 2.69324Z" fill="#0F172B"/>
<path d="M41.1581 6.37354C41.1581 5.6403 41.302 4.99637 41.5898 4.44174C41.8872 3.88711 42.2997 3.45938 42.8274 3.15857C43.355 2.84835 43.9594 2.69324 44.6405 2.69324C45.3121 2.69324 45.9069 2.82955 46.4249 3.10217C46.943 3.37478 47.3507 3.7696 47.6481 4.28663C47.9455 4.80366 48.1038 5.40999 48.123 6.10563C48.123 6.20903 48.1134 6.37354 48.0942 6.59915H42.3957V6.69786C42.4149 7.4029 42.6355 7.96693 43.0576 8.38995C43.4797 8.81297 44.0314 9.02448 44.7125 9.02448C45.2401 9.02448 45.6862 8.89758 46.0508 8.64376C46.4249 8.38055 46.6744 8.01863 46.7991 7.558H47.9935C47.8496 8.29124 47.4898 8.89287 46.9142 9.3629C46.3386 9.82352 45.6335 10.0538 44.7988 10.0538C44.0697 10.0538 43.4318 9.90343 42.8849 9.60261C42.3381 9.2924 41.9112 8.85997 41.6042 8.30534C41.3068 7.74131 41.1581 7.09738 41.1581 6.37354ZM46.8998 5.6403C46.8423 5.02927 46.6072 4.55454 46.1947 4.21612C45.7918 3.87771 45.2785 3.7085 44.6549 3.7085C44.0985 3.7085 43.6092 3.88711 43.1871 4.24433C42.765 4.60155 42.5252 5.06687 42.4676 5.6403H46.8998Z" fill="#0F172B"/>
<path d="M52.9599 2.77785V3.90591H52.3699C51.6696 3.90591 51.1659 4.13622 50.8589 4.59685C50.5615 5.05747 50.4128 5.6262 50.4128 6.30304V9.96923H49.2328V2.77785H50.2545L50.4128 3.86361C50.6239 3.53459 50.8973 3.27137 51.2331 3.07396C51.5689 2.87655 52.0341 2.77785 52.6289 2.77785H52.9599Z" fill="#0F172B"/>
<path d="M64.9788 8.91168V9.96923H64.3312C63.8611 9.96923 63.5253 9.87523 63.3239 9.68722C63.1224 9.49921 63.0169 9.22189 63.0073 8.85527C62.4413 9.65432 61.621 10.0538 60.5466 10.0538C59.7311 10.0538 59.074 9.86583 58.5751 9.48981C58.0858 9.11379 57.8412 8.60146 57.8412 7.95282C57.8412 7.22899 58.0906 6.67436 58.5895 6.28894C59.0979 5.90352 59.8318 5.71081 60.7912 5.71081H62.9497V5.21728C62.9497 4.74725 62.7866 4.38063 62.4605 4.11742C62.1439 3.85421 61.6978 3.7226 61.1222 3.7226C60.6137 3.7226 60.1916 3.8354 59.8558 4.06102C59.5296 4.27723 59.3282 4.56864 59.2514 4.93526H58.0714C58.1578 4.23023 58.4744 3.6803 59.0212 3.28548C59.5776 2.89065 60.2971 2.69324 61.1797 2.69324C62.1199 2.69324 62.8442 2.91886 63.3527 3.37008C63.8707 3.8119 64.1297 4.45114 64.1297 5.28778V8.38995C64.1297 8.73777 64.2928 8.91168 64.619 8.91168H64.9788ZM62.9497 6.68376H60.6761C59.5824 6.68376 59.0356 7.08328 59.0356 7.88232C59.0356 8.23954 59.1795 8.52626 59.4673 8.74247C59.7551 8.95868 60.1436 9.06678 60.6329 9.06678C61.3524 9.06678 61.9184 8.88347 62.3309 8.51685C62.7435 8.14083 62.9497 7.64731 62.9497 7.03628V6.68376Z" fill="#0F172B"/>
<path d="M66.2393 0C66.4599 0 66.6422 0.0705037 66.7861 0.211511C66.93 0.352518 67.0019 0.531128 67.0019 0.74734C67.0019 0.963551 66.93 1.14216 66.7861 1.28317C66.6422 1.42418 66.4599 1.49468 66.2393 1.49468C66.0186 1.49468 65.8363 1.42418 65.6924 1.28317C65.5485 1.14216 65.4766 0.963551 65.4766 0.74734C65.4766 0.531128 65.5485 0.352518 65.6924 0.211511C65.8363 0.0705037 66.0186 0 66.2393 0ZM65.6493 2.77785H66.8293V9.96923H65.6493V2.77785Z" fill="#0F172B"/>
<path d="M55.534 8.87431C55.534 9.47906 55.0276 9.96931 54.403 9.96931C53.7784 9.96931 53.272 9.47906 53.272 8.87431C53.272 8.26955 53.7784 7.7793 54.403 7.7793C55.0276 7.7793 55.534 8.26955 55.534 8.87431Z" fill="#0F6FFF"/>
</svg>
